{
    "asset" : {
        "generator" : "Khronos glTF Blender I/O v1.6.16",
        "version" : "2.0"
    },
    "extensionsUsed" : [
        "KHR_materials_transmission"
    ],
    "scene" : 0,
    "scenes" : [
        {
            "name" : "Scene",
            "nodes" : [
                0,
                1,
                7
            ]
        }
    ],
    "nodes" : [
        {
            "name" : "Light",
            "rotation" : [
                -0.14740997552871704,
                0.7170712351799011,
                -0.5510655641555786,
                0.40050700306892395
            ],
            "translation" : [
                31.531497955322266,
                46.5829963684082,
                -140.05166625976562
            ]
        },
        {
            "name" : "Camera",
            "rotation" : [
                0.48604974150657654,
                0.32731130719184875,
                -0.20278069376945496,
                0.7845401167869568
            ],
            "translation" : [
                123.6388931274414,
                87.83831024169922,
                150.49578857421875
            ]
        },
        {
            "mesh" : 0,
            "name" : "InsideButton",
            "translation" : [
                9.5,
                -15.49986457824707,
                -9.564602851867676
            ]
        },
        {
            "mesh" : 1,
            "name" : "LeftCatch",
            "translation" : [
                0,
                -74.99986267089844,
                1.2219028576510027e-05
            ]
        },
        {
            "mesh" : 2,
            "name" : "Lid",
            "translation" : [
                0,
                72.00013732910156,
                1.2219028576510027e-05
            ]
        },
        {
            "mesh" : 3,
            "name" : "OutisdeButton",
            "translation" : [
                9.5,
                -15.499860763549805,
                -13.314602851867676
            ]
        },
        {
            "mesh" : 4,
            "name" : "RightCatch",
            "translation" : [
                0,
                -74.99986267089844,
                1.2219028576510027e-05
            ]
        },
        {
            "children" : [
                2,
                3,
                4,
                5,
                6
            ],
            "mesh" : 5,
            "name" : "Body",
            "rotation" : [
                0,
                0.7071068286895752,
                0.7071067094802856,
                5.338507236274381e-08
            ]
        }
    ],
    "materials" : [
        {
            "doubleSided" : true,
            "name" : "Default OBJ.006",
            "pbrMetallicRoughness" : {
                "baseColorFactor" : [
                    0.800000011920929,
                    0.800000011920929,
                    0.800000011920929,
                    1
                ],
                "metallicFactor" : 0,
                "roughnessFactor" : 0.5
            }
        },
        {
            "doubleSided" : true,
            "extensions" : {
                "KHR_materials_transmission" : {
                    "transmissionFactor" : 0.24264740943908691
                }
            },
            "name" : "WhitePrint",
            "pbrMetallicRoughness" : {
                "baseColorFactor" : [
                    0.800000011920929,
                    0.800000011920929,
                    0.800000011920929,
                    1
                ],
                "metallicFactor" : 0
            }
        },
        {
            "doubleSided" : true,
            "name" : "Default OBJ.005",
            "pbrMetallicRoughness" : {
                "baseColorFactor" : [
                    0.800000011920929,
                    0.800000011920929,
                    0.800000011920929,
                    1
                ],
                "metallicFactor" : 0,
                "roughnessFactor" : 0.5
            }
        },
        {
            "doubleSided" : true,
            "name" : "Default OBJ.003",
            "pbrMetallicRoughness" : {
                "baseColorFactor" : [
                    0.800000011920929,
                    0.800000011920929,
                    0.800000011920929,
                    1
                ],
                "metallicFactor" : 0,
                "roughnessFactor" : 0.5
            }
        }
    ],
    "meshes" : [
        {
            "name" : "Object.011",
            "primitives" : [
                {
                    "attributes" : {
                        "POSITION" : 0,
                        "NORMAL" : 1
                    },
                    "indices" : 2,
                    "material" : 0
                }
            ]
        },
        {
            "name" : "Object.008",
            "primitives" : [
                {
                    "attributes" : {
                        "POSITION" : 3,
                        "NORMAL" : 4
                    },
                    "indices" : 5,
                    "material" : 1
                }
            ]
        },
        {
            "name" : "Object.010",
            "primitives" : [
                {
                    "attributes" : {
                        "POSITION" : 6,
                        "NORMAL" : 7
                    },
                    "indices" : 8,
                    "material" : 2
                }
            ]
        },
        {
            "name" : "Object.006",
            "primitives" : [
                {
                    "attributes" : {
                        "POSITION" : 9,
                        "NORMAL" : 10
                    },
                    "indices" : 11,
                    "material" : 3
                }
            ]
        },
        {
            "name" : "Object.009",
            "primitives" : [
                {
                    "attributes" : {
                        "POSITION" : 12,
                        "NORMAL" : 13
                    },
                    "indices" : 5,
                    "material" : 1
                }
            ]
        },
        {
            "name" : "Object.007",
            "primitives" : [
                {
                    "attributes" : {
                        "POSITION" : 14,
                        "NORMAL" : 15
                    },
                    "indices" : 16,
                    "material" : 1
                }
            ]
        }
    ],
    "accessors" : [
        {
            "bufferView" : 0,
            "componentType" : 5126,
            "count" : 6642,
            "max" : [
                4,
                4,
                4.09999942779541
            ],
            "min" : [
                -4,
                -4,
                -4.100000381469727
            ],
            "type" : "VEC3"
        },
        {
            "bufferView" : 1,
            "componentType" : 5126,
            "count" : 6642,
            "type" : "VEC3"
        },
        {
            "bufferView" : 2,
            "componentType" : 5123,
            "count" : 6642,
            "type" : "SCALAR"
        },
        {
            "bufferView" : 3,
            "componentType" : 5126,
            "count" : 816,
            "max" : [
                29.5,
                67,
                10.75
            ],
            "min" : [
                26.645597457885742,
                55.37419128417969,
                -10.75
            ],
            "type" : "VEC3"
        },
        {
            "bufferView" : 4,
            "componentType" : 5126,
            "count" : 816,
            "type" : "VEC3"
        },
        {
            "bufferView" : 5,
            "componentType" : 5123,
            "count" : 816,
            "type" : "SCALAR"
        },
        {
            "bufferView" : 6,
            "componentType" : 5126,
            "count" : 4800,
            "max" : [
                39.5,
                5,
                12.75
            ],
            "min" : [
                -39.5,
                -5,
                -12.75
            ],
            "type" : "VEC3"
        },
        {
            "bufferView" : 7,
            "componentType" : 5126,
            "count" : 4800,
            "type" : "VEC3"
        },
        {
            "bufferView" : 8,
            "componentType" : 5123,
            "count" : 4800,
            "type" : "SCALAR"
        },
        {
            "bufferView" : 9,
            "componentType" : 5126,
            "count" : 4224,
            "max" : [
                3.5,
                3.5,
                1.3499994277954102
            ],
            "min" : [
                -3.5,
                -3.5,
                -1.3500003814697266
            ],
            "type" : "VEC3"
        },
        {
            "bufferView" : 10,
            "componentType" : 5126,
            "count" : 4224,
            "type" : "VEC3"
        },
        {
            "bufferView" : 11,
            "componentType" : 5123,
            "count" : 4224,
            "type" : "SCALAR"
        },
        {
            "bufferView" : 12,
            "componentType" : 5126,
            "count" : 816,
            "max" : [
                -26.645597457885742,
                67,
                10.75
            ],
            "min" : [
                -29.5,
                55.37419128417969,
                -10.75
            ],
            "type" : "VEC3"
        },
        {
            "bufferView" : 13,
            "componentType" : 5126,
            "count" : 816,
            "type" : "VEC3"
        },
        {
            "bufferView" : 14,
            "componentType" : 5126,
            "count" : 14628,
            "max" : [
                39.5,
                67.00013732910156,
                22.750011444091797
            ],
            "min" : [
                -39.5,
                -74.99986267089844,
                -32.74934387207031
            ],
            "type" : "VEC3"
        },
        {
            "bufferView" : 15,
            "componentType" : 5126,
            "count" : 14628,
            "type" : "VEC3"
        },
        {
            "bufferView" : 16,
            "componentType" : 5123,
            "count" : 14628,
            "type" : "SCALAR"
        }
    ],
    "bufferViews" : [
        {
            "buffer" : 0,
            "byteLength" : 79704,
            "byteOffset" : 0
        },
        {
            "buffer" : 0,
            "byteLength" : 79704,
            "byteOffset" : 79704
        },
        {
            "buffer" : 0,
            "byteLength" : 13284,
            "byteOffset" : 159408
        },
        {
            "buffer" : 0,
            "byteLength" : 9792,
            "byteOffset" : 172692
        },
        {
            "buffer" : 0,
            "byteLength" : 9792,
            "byteOffset" : 182484
        },
        {
            "buffer" : 0,
            "byteLength" : 1632,
            "byteOffset" : 192276
        },
        {
            "buffer" : 0,
            "byteLength" : 57600,
            "byteOffset" : 193908
        },
        {
            "buffer" : 0,
            "byteLength" : 57600,
            "byteOffset" : 251508
        },
        {
            "buffer" : 0,
            "byteLength" : 9600,
            "byteOffset" : 309108
        },
        {
            "buffer" : 0,
            "byteLength" : 50688,
            "byteOffset" : 318708
        },
        {
            "buffer" : 0,
            "byteLength" : 50688,
            "byteOffset" : 369396
        },
        {
            "buffer" : 0,
            "byteLength" : 8448,
            "byteOffset" : 420084
        },
        {
            "buffer" : 0,
            "byteLength" : 9792,
            "byteOffset" : 428532
        },
        {
            "buffer" : 0,
            "byteLength" : 9792,
            "byteOffset" : 438324
        },
        {
            "buffer" : 0,
            "byteLength" : 175536,
            "byteOffset" : 448116
        },
        {
            "buffer" : 0,
            "byteLength" : 175536,
            "byteOffset" : 623652
        },
        {
            "buffer" : 0,
            "byteLength" : 29256,
            "byteOffset" : 799188
        }
    ],
    "buffers" : [
        {
            "byteLength" : 828444,
            "uri" : "data:application/octet-stream;base64,"
        }
    ]
}
